# xmcd CD database file
# Copyright (C) 1993-1998 Ti Kan
#
# Track frame offsets:
#	150
#	87633
#	166229
#	201656
#
# Disc length: 3824 seconds
#
# Revision: 0
# Processed by: cddbd v1.4b41PL1 Copyright (c) Steve Scherf et al.
# Submitted via: CDmax 1.5
#
DISCID=350eee04
DTITLE=Merzbow - Oersted
DYEAR=1900
DGENRE=
TTITLE0=19:23
TTITLE1=17:27
TTITLE2=7:53
TTITLE3=18:49
EXTD=
EXTT0=
EXTT1=
EXTT2=
EXTT3=
PLAYORDER=
